<svg xmlns:xlink="http://www.w3.org/1999/xlink" xmlns="http://www.w3.org/2000/svg" id="Capa_2" data-name="Capa 2" viewBox="0 0 680.3 380.84" width="680.3"  height="380.84" ><g id="Capa_1-2" data-name="Capa 1" fill="#F3F3F6"><path d="m447.79,332.19c120.11,145.02,284-65.07,216.91-225.76-39.37-95.2-112.48-124.93-204.86-95.61-118.9,42.18-153.05,160.27-238.2,233.79C55.74,373.96,62.17-14.08,276.28,151.42c22.09-32.54,33.74-50.21,55.03-78.33C195.93-70.72-8.94,12.43.3,212.48c7.63,117.3,118.1,191.62,208.08,150.64,114.08-47,168.71-231.37,295.65-245.04,120.51-11.25,100.02,197.64-12.05,132.96,11.65-5.22,23.3-10.44,34.54-15.67-48.2-8.84-96.41-18.08-145.02-26.91,28.12,68.29,38.16,93.19,64.27,168.32-.8-12.45,2.82-32.13,2.02-44.59h0Z" fill="#F3F3F6"></path></g></svg>