<svg xmlns:xlink="http://www.w3.org/1999/xlink" xmlns="http://www.w3.org/2000/svg" id="bed5885e-0662-429e-ae8c-0b9a8e535c13" data-name="Layer 1" width="91.8547" height="74.6427" viewBox="0 0 91.8547 74.6427"><path d="M90.7044,1.4952a4.5,4.5,0,1,0-.345,6.3547A4.5,4.5,0,0,0,90.7044,1.4952Z" transform="translate(0 0)"></path><path d="M61,11.1453a1,1,0,0,0,1,1H75.5877C65.2629,19.8084,61.428,27.2272,56.11,37.5163c-1.74,3.3672-3.64,7.0417-5.9777,11.1328C37.52,70.72,13.5082,72.5605.9954,72.6425A1.0012,1.0012,0,0,0,0,73.6457a.9909.9909,0,0,0,.9949.997c12.5657-.08,37.6686-1.893,50.8733-25.0013,2.4318-4.2555,4.3782-8.0176,6.1389-11.4208C63.4713,27.659,67.1484,20.5517,78,12.8665V28.1453a1,1,0,0,0,2,0v-18H62A1,1,0,0,0,61,11.1453Z" transform="translate(0 0)"></path></svg>