<svg xmlns:xlink="http://www.w3.org/1999/xlink" xmlns="http://www.w3.org/2000/svg" id="Capa_2" data-name="Capa 2" viewBox="0 0 408.58 619.57" width="408.58"  height="619.57" ><g id="Capa_1-2" data-name="Capa 1" fill="#F3F3F6"><path d="m384.07,517.2c-3.07,1.93-6.13,3.74-9.42,5.34-.8.46-1.59.91-2.5,1.36-3.97,1.81-8.06,3.4-12.37,4.77-1.02.34-2.04.57-3.07.8-3.29,1.02-6.81,1.7-10.33,2.38-1.25.23-2.5.46-3.74.57-4.43.56-8.97,1.02-13.51,1.02s-9.08-.46-13.51-1.02c-1.25-.11-2.5-.34-3.74-.57-3.52-.68-7.04-1.36-10.33-2.38-1.02-.23-2.04-.46-3.07-.8-4.31-1.36-8.4-2.95-12.37-4.77-.91-.46-1.7-.91-2.5-1.36-3.29-1.59-6.35-3.4-9.42-5.34-.57-.33-1.25-.56-1.81-1.02v103.39l48.69-48.8c2.27-2.15,5.11-3.29,8.06-3.29s5.79,1.13,8.06,3.29l48.69,48.8v-103.39c-.57.45-1.25.68-1.81,1.02Zm-54.93-165.36c-43.81,0-79.45,35.64-79.45,79.45,0,19.29,7.04,38.02,19.86,52.55,15.09,17.14,36.77,26.9,59.59,26.9s44.49-9.76,59.59-26.9c12.82-14.53,19.86-33.25,19.86-52.55,0-43.81-35.64-79.45-79.45-79.45Zm42.1,64.8l-45.4,45.4c-2.27,2.16-5.11,3.29-8.06,3.29s-5.79-1.13-8.06-3.29l-22.7-22.7c-4.42-4.42-4.42-11.69,0-16.12,4.43-4.43,11.69-4.43,16.12,0l14.64,14.76,37.34-37.45c4.43-4.43,11.69-4.43,16.12,0,4.42,4.42,4.42,11.69,0,16.11h0ZM397.23,0H11.35C5.11,0,0,5.11,0,11.35v476.68c0,6.24,5.11,11.35,11.35,11.35h238.34v-4.08c-14.64-18.16-22.7-40.63-22.7-64.01,0-56.29,45.85-102.14,102.14-102.14,32.12,0,60.72,14.87,79.45,38.13V11.35c0-6.24-5.11-11.35-11.35-11.35h0Zm-90.8,272.39H102.14c-6.24,0-11.35-5.11-11.35-11.35s5.11-11.35,11.35-11.35h204.29c6.24,0,11.35,5.11,11.35,11.35s-5.11,11.35-11.35,11.35Zm22.7-90.8H79.45c-6.24,0-11.35-5.11-11.35-11.35s5.11-11.35,11.35-11.35h249.69c6.24,0,11.35,5.11,11.35,11.35s-5.11,11.35-11.35,11.35Zm22.7-90.8H56.75c-6.24,0-11.35-5.11-11.35-11.35s5.11-11.35,11.35-11.35h295.09c6.24,0,11.35,5.11,11.35,11.35s-5.11,11.35-11.35,11.35Z" fill="#F3F3F6"></path></g></svg>