<svg xmlns:xlink="http://www.w3.org/1999/xlink" xmlns="http://www.w3.org/2000/svg" id="Capa_2" data-name="Capa 2" viewBox="0 0 81.37 67.57" width="81.37"  height="67.57" ><defs><style>      .cls-1 {        fill: none;        stroke: #000;        stroke-miterlimit: 10;        stroke-width: 2px;      }      .cls-1, .cls-2 {        fill-rule: evenodd;      }    </style></defs><g id="a00c0f7e-0dc4-4dfc-a840-b38fb3e06f89"><g><path class="cls-2" d="m22.67,25.63c1.25-2.1.56-4.81-1.54-6.06-2.1-1.25-4.81-.56-6.06,1.54-1.25,2.1-.56,4.81,1.54,6.06.68.4,1.45.62,2.24.62.85,0,1.68-.25,2.39-.72l15.68,15.23c.41.38,1.04.35,1.42-.05.36-.39.36-1-.02-1.39l-15.65-15.23Z"></path><path class="cls-1" d="m73.78,5.48h0c-8.78-8.22-23.02-4.11-31.81,4.1l-1.29,1.21-1.29-1.21C30.61,1.37,16.37-2.74,7.59,5.48h0C-1.2,13.7-1.2,27.02,7.59,35.23l1.29,1.21,31.81,29.75,31.81-29.75,1.29-1.21c8.78-8.22,8.78-21.54,0-29.75Z" stroke="#000000" fill="none" stroke-width="2px"></path></g></g></svg>