<svg xmlns:xlink="http://www.w3.org/1999/xlink" xmlns="http://www.w3.org/2000/svg" id="Capa_2" data-name="Capa 2" viewBox="0 0 426.05 503.61" width="426.05"  height="503.61" ><g id="Capa_1-2" data-name="Capa 1" fill="#F3F3F6"><path d="m413.85,78.84L220.19,1.37c-4.6-1.83-9.73-1.83-14.33,0L12.2,78.84c-3.6,1.44-6.69,3.92-8.87,7.13S0,92.97,0,96.85v145.24C0,385.4,195.21,496.36,203.54,501.02c2.94,1.7,6.28,2.59,9.68,2.59s6.74-.89,9.68-2.59c7.94-4.65,203.14-115.62,203.14-258.93V96.85c0-3.88-1.16-7.67-3.33-10.88-2.17-3.21-5.27-5.69-8.87-7.13h0Zm-109.61,128.59l-77.46,77.46c-3.64,3.67-8.58,5.73-13.75,5.73s-10.12-2.06-13.75-5.73l-58.1-58.1c-4.91-4.91-6.83-12.07-5.03-18.78,1.8-6.71,7.04-11.95,13.75-13.75,6.71-1.8,13.87.12,18.78,5.03l44.35,44.54,63.71-63.91c4.91-4.91,12.07-6.83,18.78-5.03,6.71,1.8,11.95,7.04,13.75,13.75,1.8,6.71-.12,13.87-5.03,18.78h0Z" fill="#F3F3F6"></path></g></svg>