<svg xmlns:xlink="http://www.w3.org/1999/xlink" xmlns="http://www.w3.org/2000/svg" id="af9ca67b-95be-4f98-9f6f-2a3c9fdcff41" data-name="Layer 1" width="81.3509" height="75.4557" viewBox="0 0 81.3509 75.4557"><path d="M78.9252,22.1966A4.5,4.5,0,1,0,76.8238,30.69c2.9986,13.2136-2.9278,28.21-15.96,36.9757C44.34,78.7806,22.9031,75.5376,12.9226,60.7A30.6173,30.6173,0,0,1,9.1464,34.51c4.8142,1.9311,10.8685,1.7539,16.6905-.4468l.0109.0273q.6289-.2515,1.2652-.5439.5529-.2388,1.1012-.5022l-.0125-.026a33.254,33.254,0,0,0,5.1743-3.2978,28.36,28.36,0,0,0,8.3591-9.8678c1.5464-3.2907,1.902-6.6877.0615-9.07S36.5794,7.886,33.0048,8.551a26.9591,26.9591,0,0,0-9.781,4.2415l-.0011-.0016A39.7647,39.7647,0,0,0,7.986,31.7032a12.1035,12.1035,0,0,1-3.916-3.66C1.6747,24.4823,1.3992,19.89,3.028,15.2672A26.1139,26.1139,0,0,1,13.2317,2.6594,1,1,0,1,0,12.1155,1,28.1054,28.1054,0,0,0,1.1417,14.6025C-.6437,19.67-.4186,24.9537,2.4105,29.16a14.1486,14.1486,0,0,0,4.9113,4.483A32.57,32.57,0,0,0,11.263,61.8158c10.6948,15.9,33.4288,19.1383,50.7167,7.51,13.6576-9.1866,19.9884-24.987,16.7966-39.069a4.5,4.5,0,0,0,.1489-8.06Zm-56.3666-6.48.01.0124a26.3845,26.3845,0,0,1,10.8024-5.2119c3.32-.6176,5.6992.0069,6.8433,1.4879s1.1472,3.9412-.2889,6.9972a26.3857,26.3857,0,0,1-7.7716,9.1356,30.6156,30.6156,0,0,1-5.8766,3.592c-5.9205,2.5524-11.9271,2.7521-16.4927.8681A37.327,37.327,0,0,1,22.5586,15.7168Z" transform="translate(0 -0.8296)" style="fill-rule:evenodd"></path></svg>