<svg xmlns:xlink="http://www.w3.org/1999/xlink" xmlns="http://www.w3.org/2000/svg" id="Capa_2" data-name="Capa 2" viewBox="0 0 73.7 73.7" width="80"  height="80" ><g id="a00c0f7e-0dc4-4dfc-a840-b38fb3e06f89"><g><path d="m18.21,5.06c6.32-.05,12.58-.44,18.89-1.12,4.74-.51,9.44-.91,14.16-1.02-4.42-1.88-9.29-2.92-14.4-2.92-6.8,0-13.17,1.85-18.64,5.06Z"></path><path d="m37.1,10.31c-7.28,1.08-14.42,1.79-21.79,1.42-1.7-.09-3.4-.2-5.09-.33-1.59,1.66-3.02,3.47-4.28,5.4,3.16.48,6.32.96,9.5,1.27,7.39.72,14.42-.33,21.66-1.73,7.26-1.41,14.22-2.16,21.62-2.01,2.49.05,4.97.13,7.46.22-1.54-2.03-3.29-3.89-5.22-5.55-.7-.03-1.41-.06-2.11-.09-7.37-.28-14.46.34-21.75,1.42Z"></path><path d="m47.8,19.77c-3.61.46-7.16,1.3-10.7,2.13-7.2,1.69-14.14,3.02-21.55,2.01-4.12-.56-8.18-1.48-12.24-2.32-.43.94-.82,1.9-1.17,2.88,4.47,1.01,8.91,2.19,13.45,2.87,7.42,1.11,14.33-.32,21.51-2.14,3.52-.89,7.05-1.8,10.66-2.28,3.58-.49,7.2-.38,10.81-.38,4.09,0,8.18.03,12.27.04-.44-1.04-.92-2.05-1.45-3.04-3.59-.05-7.19-.1-10.78-.13-3.61-.02-7.22-.1-10.81.35Z"></path><path d="m47.74,30.83c-3.58.41-7.13,1.11-10.67,1.79-7.17,1.39-14.21,2.68-21.52,1.67-5.1-.7-10.1-1.96-15.14-2.94-.07.45-.12.89-.17,1.34,5.09.91,10.14,2.09,15.28,2.75,7.27.93,14.36-.22,21.53-1.39,3.55-.58,7.1-1.16,10.68-1.52,3.6-.36,7.2-.28,10.81-.36,4.93-.1,9.86-.36,14.79-.54-.07-.52-.16-1.04-.25-1.55-4.84.12-9.69.3-14.53.36-3.62.05-7.21-.04-10.81.37Z"></path><path d="m47.74,25.93c-3.6.49-7.13,1.41-10.64,2.32-7.15,1.84-14.09,3.32-21.5,2.19-4.84-.74-9.57-2.09-14.33-3.19-.12.46-.24.92-.34,1.38,4.88,1.08,9.72,2.42,14.67,3.17,7.38,1.11,14.34-.35,21.5-2.09,3.52-.85,7.05-1.72,10.65-2.2,3.6-.49,7.19-.38,10.81-.38,4.61,0,9.22-.06,13.83-.09-.14-.5-.29-1-.45-1.49-4.46,0-8.92.02-13.39.02-3.61,0-7.22-.13-10.81.37Z"></path><path d="m36.93,42.65c-7.21-.41-14.42-.49-21.63-.82-5.04-.23-10.06-.73-15.09-1.1.1.92.23,1.83.39,2.72,4.88.2,9.75.47,14.64.58,7.3.16,14.41.59,21.66,1.49,7.2.9,14.4,1.87,21.66,1.08,4.83-.53,9.59-1.45,14.38-2.2.22-1.06.39-2.14.52-3.23-4.96.63-9.91,1.43-14.9,1.88-7.19.64-14.43.02-21.62-.4Z"></path><path d="m36.85,53.28c-3.6-.72-7.2-1.44-10.85-1.84-3.61-.39-7.22-.31-10.84-.31-4.1,0-8.2-.01-12.31-.02.56,1.33,1.19,2.61,1.89,3.86,10.76.02,21.52.36,32.13,2.06,7.22,1.16,14.34,2.2,21.66,1.4,3.05-.34,6.08-.83,9.11-1.35.86-1.31,1.64-2.67,2.33-4.08-3.8.75-7.59,1.54-11.44,2.03-7.38.93-14.46-.3-21.69-1.74Z"></path><path d="m36.99,63.55c-7.2-.42-14.38-.5-21.59-.66-1.59-.04-3.17-.08-4.76-.14,2.06,2.08,4.36,3.92,6.86,5.47,6.51.15,13.04-.07,19.55-.16,6.59-.09,13.18-.11,19.76-.23,1.87-1.21,3.63-2.58,5.24-4.1-1.17.09-2.34.17-3.51.24-7.19.41-14.38,0-21.56-.41Z"></path><path d="m37.03,35.97c-7.17.84-14.34,1.75-21.55.94-5.17-.58-10.27-1.63-15.4-2.43-.05.78-.08,1.57-.08,2.37,0,.7.02,1.39.06,2.09,5.09.49,10.17,1.15,15.29,1.48,7.17.47,14.42.26,21.61.32,7.18.06,14.43.41,21.59-.12,5.05-.37,10.06-1.07,15.09-1.6.04-.72.07-1.45.07-2.18,0-1.05-.05-2.09-.13-3.12-5.01.28-10.01.65-15.02.82-7.23.25-14.32.57-21.52,1.42Z"></path><path d="m22.61,70.85c4.38,1.84,9.19,2.85,14.24,2.85,5.94,0,11.55-1.41,16.52-3.9-5.44.14-10.87.33-16.29.57-4.82.21-9.65.44-14.47.48Z"></path></g></g></svg>